<?xml version="1.0" encoding="utf-8"?>
<!-- Generator: Adobe Illustrator 24.3.0, SVG Export Plug-In . SVG Version: 6.00 Build 0)  -->
<svg version="1.1" id="Layer_1" xmlns="http://www.w3.org/2000/svg" xmlns:xlink="http://www.w3.org/1999/xlink" x="0px" y="0px"
	 viewBox="0 0 147 30" style="enable-background:new 0 0 147 30;" xml:space="preserve">
<style type="text/css">
	.st0{fill-rule:evenodd;clip-rule:evenodd;fill:#1D1E20;}
	.st1{fill:#1D1E20;}
</style>
<g>
	<path class="st0" d="M62.5,17.7c0.3-0.8,0.5-1.7,0.5-2.8c0-1-0.2-2-0.5-2.8c-0.3-0.8-0.7-1.5-1.3-2c-0.6-0.5-1.2-0.9-1.9-1.2
		c-0.7-0.3-1.5-0.4-2.4-0.4c-0.8,0-1.6,0.1-2.3,0.4c-0.7,0.3-1.4,0.7-1.9,1.2c-0.6,0.5-1,1.2-1.3,2c-0.3,0.8-0.5,1.7-0.5,2.8
		c0,1,0.2,2,0.5,2.8c0.3,0.8,0.7,1.5,1.3,2c0.5,0.5,1.2,0.9,1.9,1.2c0.7,0.3,1.5,0.4,2.4,0.4c0.9,0,1.7-0.1,2.4-0.4
		c0.7-0.3,1.4-0.7,1.9-1.2C61.7,19.2,62.2,18.5,62.5,17.7z M53.9,16.6c-0.1-0.5-0.2-1-0.2-1.6c0-0.6,0.1-1.1,0.2-1.6
		c0.1-0.5,0.4-0.9,0.6-1.3c0.3-0.3,0.6-0.6,1-0.8c0.4-0.2,0.9-0.3,1.4-0.3c0.5,0,1,0.1,1.4,0.3c0.4,0.2,0.7,0.5,1,0.8
		c0.3,0.3,0.5,0.8,0.6,1.3c0.1,0.5,0.2,1,0.2,1.6c0,0.6-0.1,1.1-0.2,1.6c-0.1,0.5-0.4,0.9-0.6,1.2c-0.3,0.3-0.6,0.6-1,0.8
		c-0.4,0.2-0.9,0.3-1.4,0.3c-0.5,0-1-0.1-1.4-0.3c-0.4-0.2-0.7-0.5-1-0.8C54.2,17.5,54,17,53.9,16.6z"/>
	<path class="st1" d="M69.8,19c0.4,0,0.7,0,1-0.1c0.3-0.1,0.5-0.2,0.6-0.3c0.2-0.1,0.3-0.2,0.3-0.4c0.1-0.2,0.1-0.3,0.1-0.5
		c0-0.4-0.2-0.7-0.6-1c-0.4-0.3-1-0.6-1.9-0.9c-0.4-0.1-0.8-0.3-1.2-0.5s-0.8-0.4-1.1-0.7c-0.3-0.3-0.6-0.6-0.8-1
		c-0.2-0.4-0.3-0.9-0.3-1.4s0.1-1.1,0.3-1.5c0.2-0.5,0.5-0.8,0.9-1.2C67.6,9.2,68,9,68.6,8.8c0.6-0.2,1.2-0.3,1.9-0.3
		c0.8,0,1.5,0.1,2.1,0.3C73.2,9,73.6,9.2,74,9.4l-0.8,2.2c-0.3-0.2-0.7-0.3-1.1-0.5c-0.4-0.1-0.9-0.2-1.5-0.2
		c-0.7,0-1.1,0.1-1.4,0.3c-0.3,0.2-0.4,0.5-0.4,0.8c0,0.2,0.1,0.4,0.2,0.6c0.1,0.2,0.3,0.3,0.4,0.4c0.2,0.1,0.4,0.2,0.7,0.3
		c0.3,0.1,0.5,0.2,0.8,0.3c0.6,0.2,1.2,0.5,1.7,0.7c0.5,0.2,0.9,0.5,1.2,0.8c0.3,0.3,0.5,0.7,0.7,1.1c0.2,0.4,0.2,0.9,0.2,1.5
		c0,1.1-0.4,2-1.2,2.7c-0.8,0.6-2,0.9-3.6,0.9c-0.5,0-1,0-1.5-0.1c-0.4-0.1-0.8-0.1-1.1-0.2c-0.3-0.1-0.6-0.2-0.9-0.3
		c-0.2-0.1-0.4-0.2-0.6-0.3l0.8-2.2c0.4,0.2,0.8,0.4,1.3,0.5C68.4,18.9,69,19,69.8,19z"/>
	<path class="st1" d="M86.7,8.8v2.4H83v9.9h-2.7v-9.9h-3.7V8.8H86.7z"/>
	<path class="st1" d="M89.7,21.1h2.7V8.8h-2.7V21.1z"/>
	<path class="st1" d="M104.7,21.1c-0.8-1.4-1.6-2.8-2.5-4.2c-0.9-1.4-1.9-2.7-2.9-3.9v8h-2.7V8.8h2.2c0.4,0.4,0.8,0.9,1.3,1.4
		c0.5,0.6,0.9,1.2,1.4,1.8c0.5,0.6,1,1.3,1.4,2c0.5,0.7,0.9,1.4,1.4,2V8.8h2.7v12.2L104.7,21.1z"/>
	<path class="st1" d="M117,10.9c-1.3,0-2.2,0.4-2.8,1.1c-0.6,0.7-0.9,1.7-0.9,2.9c0,0.6,0.1,1.1,0.2,1.6c0.1,0.5,0.4,0.9,0.6,1.3
		c0.3,0.4,0.6,0.6,1.1,0.8c0.4,0.2,0.9,0.3,1.5,0.3c0.3,0,0.6,0,0.8,0c0.2,0,0.4,0,0.6-0.1v-4.3h2.7v6.1c-0.3,0.1-0.9,0.3-1.6,0.4
		c-0.7,0.1-1.6,0.2-2.7,0.2c-0.9,0-1.7-0.1-2.5-0.4c-0.7-0.3-1.4-0.7-1.9-1.2c-0.5-0.5-0.9-1.2-1.2-2c-0.3-0.8-0.4-1.7-0.4-2.7
		c0-1,0.2-1.9,0.5-2.7c0.3-0.8,0.7-1.5,1.3-2c0.6-0.5,1.2-1,1.9-1.2c0.7-0.3,1.5-0.4,2.4-0.4c0.6,0,1.1,0,1.6,0.1
		c0.5,0.1,0.9,0.2,1.2,0.3c0.3,0.1,0.6,0.2,0.8,0.3c0.2,0.1,0.4,0.2,0.5,0.2l-0.8,2.2c-0.4-0.2-0.8-0.4-1.3-0.5
		C118.1,11,117.6,10.9,117,10.9z"/>
	<path class="st1" d="M124.7,21.1V8.8h8.2v2.3h-5.5v2.4h4.9v2.3h-4.9v3h5.9v2.3H124.7z"/>
	<path class="st0" d="M144.4,9.7c-1-0.7-2.4-1-4.2-1c-0.5,0-1.1,0-1.7,0.1c-0.6,0-1.3,0.1-1.9,0.2v12.1h2.7v-4.5h1.4
		c0.2,0.3,0.5,0.6,0.7,0.9c0.2,0.3,0.5,0.7,0.7,1.1c0.2,0.4,0.5,0.8,0.7,1.2c0.2,0.4,0.5,0.8,0.7,1.2h3.1c-0.2-0.4-0.4-0.9-0.7-1.4
		c-0.2-0.5-0.5-0.9-0.8-1.3c-0.3-0.4-0.5-0.8-0.8-1.2c-0.3-0.4-0.5-0.7-0.8-1.1c0.7-0.3,1.3-0.7,1.7-1.3c0.4-0.5,0.6-1.2,0.6-2.1
		C145.9,11.3,145.4,10.3,144.4,9.7z M139.8,11c0.2,0,0.3,0,0.5,0c0.9,0,1.5,0.1,2,0.4c0.5,0.3,0.7,0.7,0.7,1.3
		c0,0.6-0.2,1.1-0.7,1.3c-0.4,0.3-1.2,0.4-2.2,0.4h-0.8v-3.3C139.5,11.1,139.7,11.1,139.8,11L139.8,11z"/>
	<path class="st1" d="M44.4,8.9h2.8v12.2h-2.8v-5.2h-4.6v5.2H37V8.9h2.8v4.7h4.6L44.4,8.9z"/>
	<path class="st0" d="M18.2,0.4v8.7l7.1,4.1V4L18.2,0.4z M0.4,0.4v13.7h22.9l-7-3.8l-9.1,0V4.1L0.4,0.4z M18.2,25.8v-6.1l-9.2,0
		c0,0-7.1-3.9-7.1-3.9l23.3,0.1v13.7L18.2,25.8z M0.4,16.9l0,9l6.9,3.6v-8.5L0.4,16.9z"/>
</g>
</svg>
