<?xml version="1.0" encoding="utf-8"?>
<!-- Generator: Adobe Illustrator 24.3.0, SVG Export Plug-In . SVG Version: 6.00 Build 0)  -->
<svg version="1.1" id="Layer_1" xmlns="http://www.w3.org/2000/svg" xmlns:xlink="http://www.w3.org/1999/xlink" x="0px" y="0px"
	 viewBox="0 0 800 230.7" style="enable-background:new 0 0 800 230.7;" xml:space="preserve">
<style type="text/css">
	.st0{fill:#D9D9D9;filter:url(#Adobe_OpacityMaskFilter);}
	.st1{mask:url(#mask0_2095_62862_1_);}
</style>
<defs>
	<filter id="Adobe_OpacityMaskFilter" filterUnits="userSpaceOnUse" x="9.7" y="55.7" width="780.6" height="119.3">
		<feColorMatrix  type="matrix" values="1 0 0 0 0  0 1 0 0 0  0 0 1 0 0  0 0 0 1 0"/>
	</filter>
</defs>
<mask maskUnits="userSpaceOnUse" x="9.7" y="55.7" width="780.6" height="119.3" id="mask0_2095_62862_1_">
	<rect x="3.6" y="23.2" class="st0" width="1033.5" height="189.7"/>
</mask>
<g class="st1">
	<path d="M98.1,95.1c1.7,3.2,2.4,6.5,2.2,9.9c-0.1,3.4-1,8.9-2.7,16.5l-10.7,50.4H64.1l11-52.2c1-4.6,1-8.4,0.1-11.2
		c-1.2-4-4.7-6-10.4-6s-10.8,2-14.8,6c-3.9,4-6.6,9.6-8.2,16.9L32,171.9H9.7L34.2,56.2h22.3l-8.7,41.1c4.3-5,8.8-8.5,13.5-10.4
		c4.7-2,9.4-3,14.1-3c5.3,0,9.9,0.9,13.8,2.7C93.1,88.4,96.2,91.3,98.1,95.1L98.1,95.1z M170.9,129.2c1.9-8.6,1.5-15.3-1.1-19.9
		c-2.5-4.7-7-7-13.6-7c-6.6,0-12.1,2.3-16.6,7c-4.5,4.6-7.7,11.3-9.5,19.9c-1.9,8.6-1.5,15.3,1,20c2.6,4.7,7.1,7,13.6,7
		c6.5,0,12.1-2.3,16.6-7C165.8,144.5,169,137.8,170.9,129.2L170.9,129.2z M140.8,175c-14.7,0-24.7-4.5-30.1-13.4
		c-5.3-9-6.6-19.8-3.9-32.4c2.6-12.4,8.5-23.1,17.7-32.2c9.2-9.1,21.1-13.6,35.8-13.6c14.7,0,24.7,4.5,30,13.6
		c5.3,9.1,6.6,19.8,4,32.2c-2.7,12.6-8.6,23.4-17.7,32.4C167.5,170.5,155.6,175,140.8,175z M219.8,144.6c-0.4,4,0.1,6.8,1.3,8.5
		c2.1,3,6.9,4.5,14.4,4.5c4.4,0,8-0.7,10.9-2c2.9-1.3,4.6-3.3,5.2-5.9c0.5-2.5-0.1-4.5-1.9-5.8c-1.9-1.3-9.1-3.6-21.9-6.8
		c-9.2-2.4-15.4-5.4-18.5-9c-3.3-3.6-4.1-8.7-2.7-15.5c1.7-7.9,6.2-14.7,13.6-20.4c7.5-5.7,16.8-8.6,28-8.6
		c11.3,0,18.9,2.2,24.8,6.5c5.8,4.3,8.1,11.6,6.9,22.2h-22.4c0.2-2.9-0.1-5.2-1-6.8c-1.9-3-5.7-4.5-11.6-4.5
		c-4.9,0-8.5,0.7-10.9,2.3c-2.3,1.5-3.8,3.3-4.1,5.4c-0.6,2.6,0.1,4.5,2.1,5.6c1.9,1.2,9.3,3.3,22,6.2c8.4,2.1,14.4,5.3,18,9.5
		c3.5,4.3,4.6,9.7,3.2,16.1c-1.9,8.5-6.5,15.5-13.9,20.9c-7.5,5.3-17.7,8-31,8c-13.2,0-22.8-2.8-28-8.5c-5.2-5.7-6.9-13-5-21.8h22.7
		H219.8z M287.1,102.9l3.4-16h11.9l5.1-24h22.1l-5.1,24h13.9l-3.4,16h-13.9l-9.7,45.4c-0.7,3.5-0.7,5.7-0.1,6.6
		c0.7,0.8,3.4,1.3,7.9,1.3h2.1l2.3-0.1l-3.6,16.8l-10.7,0.4c-10.6,0.4-17.5-1.5-20.5-5.5c-2-2.6-2.3-6.6-1.3-11.9l11.2-52.9H287.1
		L287.1,102.9z M395.1,128.1c-4.2,1.7-8.7,2.8-13.2,3.4c-4.2,0.5-8.5,1-12.7,1.3c-7.5,0.5-13.7,2.2-18.5,5c-4.7,2.8-7.7,7-8.9,12.8
		c-0.5,2.6-0.5,4.8,0.1,6.8c0.6,1.8,1.7,3.4,3.1,4.7c1.5,1.2,3.3,2.1,5.3,2.7c2,0.5,4.2,0.8,6.4,0.8c3.9,0,7.7-0.5,11.4-1.5
		c3.8-0.9,7.3-2.4,10.6-4.4c3.3-2,6.1-4.5,8.5-7.6c2.3-3.1,4-6.8,5-11L395.1,128.1L395.1,128.1z M379.7,123.2c1.8-0.2,4-0.5,6.6-1
		c2.7-0.4,4.9-1,6.8-1.8c1.9-0.7,3.1-2,3.7-3.7c0.7-1.8,1.3-3.5,1.6-5c0.5-2.5,0.6-4.7,0.3-6.8c-0.3-2-1.2-3.9-2.6-5.3
		c-1.3-1.5-3.2-2.7-5.6-3.6c-2.3-0.9-5.4-1.3-9.2-1.3c-6.6,0-12.4,1.3-17.4,4c-5,2.7-8.6,7.6-10.9,14.9h-9.8
		c1.4-4.9,3.4-9.1,5.9-12.6c2.5-3.4,5.7-6.3,9.3-8.6c3.6-2.3,7.5-3.9,11.6-4.8c4.3-1.1,8.7-1.6,13.2-1.6c4.2,0,8,0.5,11.4,1.5
		c3.6,0.9,6.4,2.3,8.7,4.4c2.3,2,3.9,4.6,4.8,7.9c0.9,3.3,0.8,7.4-0.1,12.3l-9.7,45.5c-0.9,3.8-0.7,6.2,0.3,7.3
		c1.2,1,3.9,0.7,8.4-0.8l-1.6,7.6c-0.7,0.2-1.9,0.5-3.6,1c-1.4,0.4-2.9,0.6-4.3,0.6c-1.4,0-2.8-0.1-4.2-0.5c-3.1-0.5-4.9-2-5.3-4.4
		c-0.4-2.7-0.4-5.4,0.1-8.1c-5,4.5-10.4,8-16.2,10.3c-5.6,2.3-11.6,3.6-17.7,3.6c-3.5,0-7-0.5-10.3-1.5c-2.9-0.9-5.7-2.4-7.9-4.5
		c-2.1-2-3.7-4.6-4.5-7.4c-0.9-3-0.9-6.6,0-10.7c2.9-14.2,14.4-22.6,34.4-25.2L379.7,123.2L379.7,123.2z M485.7,129.8
		c1-4.7,1.2-9.2,0.8-13.4c-0.3-4.3-1.4-8-3.1-11.2c-1.7-3.2-4.1-5.8-7.3-7.6c-3-2-6.7-2.9-11.1-2.9c-5,0-9.6,1-13.7,3.1
		c-4.1,2-7.8,4.7-10.8,8.1c-3.2,3.6-5.8,7.7-7.7,12.1c-2.1,4.7-3.6,9.6-4.3,14.7c-1.1,5.3-1.4,10-0.8,14c0.6,4,2,7.4,3.9,10.2
		c1.9,2.8,4.5,5,7.6,6.5c3.2,1.4,6.9,2.1,10.9,2.1c4.5,0,8.7-0.9,12.5-2.7c3.9-1.8,7.5-4.3,10.4-7.4c3.2-3.3,5.8-7.1,7.7-11.3
		c2.1-4.4,3.8-9.1,4.8-14.2H485.7z M501.5,55.7h9.7l-24.6,116.2h-9.7l3.1-14.7h-0.3c-1.9,2.8-4.2,5.3-6.9,7.4
		c-2.7,2.1-5.5,3.8-8.4,5.2c-2.8,1.4-5.8,2.4-8.9,3.2c-2.7,0.7-5.6,1.1-8.4,1.1c-6.8,0-12.3-1.1-16.6-3.4c-4.3-2.2-7.5-5.3-9.7-9.2
		c-2.1-4-3.4-8.7-3.7-14c-0.2-5.4,0.3-11.2,1.6-17.3c1.3-5.8,3.2-11.4,5.8-16.8c2.4-5.2,5.7-9.9,9.7-14c3.9-4.1,8.5-7.3,13.7-9.7
		c5.3-2.5,11.1-3.7,17.4-3.7c5.9,0,11.3,1.4,16.1,4c4.9,2.6,8.4,6.5,10.3,11.6L501.5,55.7L501.5,55.7z M513.3,88.4h10.4l11.9,71.7
		l42.2-71.7h10.4l-50,83.6h-10.8L513.3,88.4z M577,171.9l17.7-83.6h9.7l-17.7,83.6H577z M598.1,70.1l3.1-14.4h10.6l-3.1,14.4H598.1z
		 M675.9,114.7c-0.3-6.3-2.2-11.1-5.6-14.5c-3.4-3.6-8.4-5.3-14.8-5.3c-4.9,0-9.4,1-13.4,3.1c-4,2.1-7.5,4.8-10.4,8.2
		c-3.1,3.4-5.6,7.3-7.4,11.4c-1.9,4.1-3.4,8.4-4.3,12.8c-0.9,4.3-1.4,8.6-1.3,12.9c0.2,4.2,1.1,8,2.6,11.3c1.6,3.3,3.9,6,7.1,8.1
		c3.1,2,7.2,2.9,12.2,2.9c7.2,0,13.4-2,18.5-6c5.3-4,9.2-9.5,11.7-16.5H681c-1.8,4.5-4,8.8-6.8,12.8c-2.6,3.7-5.8,7-9.3,9.8
		c-3.6,2.7-7.6,4.8-11.9,6.3c-4.4,1.5-9.2,2.2-14.5,2.2c-6.6,0-12.2-1.1-16.6-3.4c-4.3-2.2-7.6-5.3-10-9.2c-2.2-4-3.6-8.7-3.9-14
		c-0.3-5.4,0.1-11.2,1.5-17.3c1.2-5.8,3.2-11.4,5.9-16.6c2.7-5.2,6.1-10,10.3-14.2c4-4.1,8.8-7.3,14-9.7c5.5-2.5,11.4-3.8,17.4-3.7
		c9.7,0,17,2.3,21.9,6.9c5,4.6,7.3,11.8,6.6,21.6H675.9z M758.2,124.4c0.9-4.1,1.1-7.9,0.6-11.4c-0.3-3.7-1.3-6.8-2.9-9.3
		c-1.6-2.7-3.9-4.8-6.9-6.3c-3-1.6-6.6-2.4-10.9-2.4c-4.3,0-8.2,0.8-11.9,2.4c-3.6,1.6-6.8,3.8-9.7,6.5c-2.9,2.7-5.5,5.9-7.6,9.3
		c-2.1,3.6-3.9,7.3-5.2,11.3H758.2z M702,132.4c-0.9,4.3-1.3,8.6-1,12.9c0.3,4,1.3,7.5,3.1,10.5c1.8,2.9,4.2,5.4,7.3,7.1
		c3.2,1.7,7.1,2.6,11.7,2.6c6.3,0,12.1-1.7,17.2-5c5.3-3.3,9.3-8.1,12.1-14.2h10.8c-2,3.9-4.4,7.7-7.1,11.2c-2.6,3.4-5.6,6.4-9,8.9
		c-3.6,2.5-7.5,4.5-11.6,5.8c-4.3,1.4-9.1,2.1-14.3,2.1c-6.6,0-12.2-1.1-16.6-3.4c-4.3-2.2-7.6-5.3-10-9.2c-2.2-4-3.6-8.6-3.9-13.9
		c-0.3-5.4,0.1-11.2,1.5-17.3c1.3-6,3.4-11.8,6.3-17.3c2.7-5.2,6.3-9.9,10.5-14c4-4,8.8-7.2,14-9.5c5.3-2.4,11.1-3.6,16.9-3.6
		c11.5,0,19.6,4,24.5,11.9c4.9,7.9,5.8,19.3,2.4,34.4L702,132.4L702,132.4z M775.5,172l3.1-14.2h11.7l-3.1,14.2H775.5z"/>
</g>
</svg>
