<?xml version="1.0" encoding="utf-8"?>
<!-- Generator: Adobe Illustrator 24.3.0, SVG Export Plug-In . SVG Version: 6.00 Build 0)  -->
<svg version="1.1" id="Layer_1" xmlns="http://www.w3.org/2000/svg" xmlns:xlink="http://www.w3.org/1999/xlink" x="0px" y="0px"
	 viewBox="0 0 14 14" style="enable-background:new 0 0 14 14;" xml:space="preserve">
<style type="text/css">
	.st0{fill:#03DD5B;}
</style>
<g>
	<path class="st0" d="M13,4.3c0,0.2-0.1,0.4-0.2,0.5l-5.6,5.5l-1.1,1c-0.1,0.1-0.3,0.2-0.5,0.2s-0.4-0.1-0.5-0.2l-1.1-1L1.2,7.5
		C1.1,7.4,1,7.2,1,7s0.1-0.4,0.2-0.5l1.1-1c0.1-0.1,0.3-0.2,0.5-0.2s0.4,0.1,0.5,0.2l2.3,2.2l5.1-5c0.1-0.1,0.3-0.2,0.5-0.2
		s0.4,0.1,0.5,0.2l1.1,1C12.9,3.9,13,4.1,13,4.3L13,4.3z"/>
</g>
</svg>
