<?xml version="1.0" encoding="utf-8"?>
<!-- Generator: Adobe Illustrator 24.3.0, SVG Export Plug-In . SVG Version: 6.00 Build 0)  -->
<svg version="1.1" id="Layer_1" xmlns="http://www.w3.org/2000/svg" xmlns:xlink="http://www.w3.org/1999/xlink" x="0px" y="0px"
	 viewBox="0 0 800 800" style="enable-background:new 0 0 800 800;" xml:space="preserve">
<style type="text/css">
	.st0{fill:#00B090;}
</style>
<g>
	<path class="st0" d="M153,776.8c10.8-42.3,21.2-83,31.6-123.7c12.8-50.1,25.6-100.2,38.7-150.3c1.4-5.3,0.2-8.2-3.8-11.7
		C150.2,433,81.2,374.7,12.1,316.4c-1.7-1.4-3.3-3-6.1-5.6c12.4-0.9,23.3-1.8,34.2-2.5c74.3-4.8,148.6-9.6,222.9-14.3
		c6.7-0.4,13.3-1.4,20-1.2c6.3,0.1,9.4-2.1,11.8-8c33.3-83.9,66.9-167.6,100.5-251.4c1.1-2.8,2.4-5.6,4.3-10.1
		c1.6,3.6,2.7,6,3.7,8.3c33.8,84.2,67.6,168.5,101.2,252.8c2.5,6.3,5.7,8.1,12.3,8.4c59.5,3.6,118.9,7.6,178.3,11.5
		c26.9,1.8,53.8,3.4,80.7,5.2c5.4,0.3,10.7,0.8,16.1,1.2c0.7,0.9,1.4,1.7,2.1,2.6c-2,0.9-4.2,1.5-5.8,2.9
		c-68.8,57.9-137.5,115.8-206.4,173.6c-5.3,4.4-7.1,8.2-5.2,15.3c22.9,87.8,45.3,175.7,67.8,263.6c0.6,2.2,1,4.4,1.8,8.1
		c-3.5-2.1-6-3.5-8.5-5c-77-48.4-154.1-96.7-230.9-145.3c-5.5-3.4-9.1-3.1-14.3,0.2c-76.7,48.4-153.5,96.6-230.3,144.8
		C159.6,772.9,156.9,774.5,153,776.8L153,776.8z"/>
</g>
</svg>
