<?xml version="1.0" encoding="utf-8"?>
<!-- Generator: Adobe Illustrator 24.3.0, SVG Export Plug-In . SVG Version: 6.00 Build 0)  -->
<svg version="1.1" id="Layer_1" xmlns="http://www.w3.org/2000/svg" xmlns:xlink="http://www.w3.org/1999/xlink" x="0px" y="0px"
	 viewBox="0 0 800 800" style="enable-background:new 0 0 800 800;" xml:space="preserve">
<style type="text/css">
	.st0{fill:#FDFDFF;}
</style>
<g>
	<path class="st0" d="M149,782.9c11-43,21.6-84.3,32.1-125.7c13-50.9,26-101.9,39.3-152.7c1.4-5.4,0.2-8.4-3.9-11.9
		C146.2,433.5,76,374.2,5.8,315c-1.7-1.5-3.3-3.1-6.2-5.7c12.6-0.9,23.7-1.8,34.8-2.5c75.5-4.9,151-9.7,226.6-14.6
		c6.8-0.4,13.6-1.4,20.3-1.3c6.4,0.1,9.5-2.1,11.9-8.2c33.9-85.2,68-170.4,102.1-255.5c1.2-2.9,2.4-5.7,4.3-10.2
		c1.6,3.7,2.7,6,3.7,8.5c34.3,85.6,68.7,171.2,102.8,256.9c2.5,6.4,5.8,8.2,12.5,8.6c60.4,3.7,120.8,7.8,181.2,11.7
		c27.3,1.8,54.7,3.5,82,5.3c5.5,0.3,10.9,0.8,16.3,1.2c0.7,0.9,1.5,1.7,2.2,2.6c-2,1-4.3,1.6-5.9,2.9
		c-69.9,58.8-139.7,117.7-209.8,176.4c-5.4,4.5-7.2,8.3-5.3,15.6c23.2,89.2,46,178.6,68.9,267.9c0.6,2.2,1,4.5,1.8,8.2
		c-3.6-2.1-6.1-3.6-8.6-5.1C563.3,728.5,485,679.4,406.9,630c-5.6-3.5-9.2-3.2-14.5,0.2c-77.9,49.2-156,98.1-234.1,147.1
		C155.7,779,153,780.6,149,782.9L149,782.9z"/>
</g>
</svg>
