<?xml version="1.0" encoding="utf-8"?>
<!-- Generator: Adobe Illustrator 24.3.0, SVG Export Plug-In . SVG Version: 6.00 Build 0)  -->
<svg version="1.1" id="Layer_1" xmlns="http://www.w3.org/2000/svg" xmlns:xlink="http://www.w3.org/1999/xlink" x="0px" y="0px"
	 viewBox="0 0 800 800" style="enable-background:new 0 0 800 800;" xml:space="preserve">
<style type="text/css">
	.st0{fill-rule:evenodd;clip-rule:evenodd;fill:#1D1E20;}
</style>
<g>
	<path class="st0" d="M400,6C182.7,6,6,182.7,6,400s176.7,394,394,394s394-176.8,394-394C794,182.7,617.3,6,400,6z M400,45.4
		c195.5,0,354.6,159,354.6,354.6S595.5,754.6,400,754.6S45.4,595.5,45.4,400C45.4,204.4,204.5,45.4,400,45.4z M400,84.8
		c-52.2-0.1-103.7,12.7-149.7,37.5c-46,24.7-85.1,60.5-113.8,104.1c7.4,0.3,15.1,1.2,20.9,1.2c33,0,83.7-4.9,83.7-4.9
		c16.9-0.9,18.2,25.1,1.2,27.1c0,0-16.7,1.4-35.7,2.5L311.4,565l68.9-206.8l-38.2-105.9c-16.9-0.9-33.3-2.5-33.3-2.5
		c-17.1-1.1-15.7-28.2,1.2-27.1c0,0,52.8,4.9,83.7,4.9c33,0,83.7-4.9,83.7-4.9c17.1-0.9,19.4,25.1,2.5,27.1c0,0-18,1.4-36.9,2.5
		l114.5,315.2l32-104.7c10.3-42,23.4-75.1,23.4-102.2c0-29.6-13.6-43.2-25.9-64c-15.5-26.2-30.8-47.9-30.8-73.9
		c0-28.9,22-55.4,53-55.4c1.4,0,2.3-0.1,3.7,0C554.9,114,478.8,84.6,400,84.8z M677,248.6c1.4,10,0.6,20.3,1.2,32
		c1.5,32-4.8,81.3-12.3,104.6c-24,74.3-94.8,278.3-94.8,278.3c1.2-0.5,3.5-1.4,8.6-4.9c41.9-28.8,76.2-67.4,99.8-112.5
		c23.6-45.1,35.8-95.2,35.6-146.1C715.4,347.1,702.3,295,677,248.6L677,248.6z M111.9,272c-17.9,40.3-27.1,83.9-27.1,128
		c-0.1,59.1,16.6,117,47.9,167.1c31.4,50.1,76.2,90.3,129.4,116.1L111.9,272L111.9,272z M406.1,427.1l-94.8,275.8
		c28.8,8.3,58.7,12.5,88.6,12.3c36.6,0,71.9-5.7,104.7-17.2c-0.9-1.6-1.7-3.2-2.5-4.9L406.1,427.1z"/>
</g>
</svg>
