<?xml version="1.0" encoding="utf-8"?>
<!-- Generator: Adobe Illustrator 24.3.0, SVG Export Plug-In . SVG Version: 6.00 Build 0)  -->
<svg version="1.1" id="Layer_1" xmlns="http://www.w3.org/2000/svg" xmlns:xlink="http://www.w3.org/1999/xlink" x="0px" y="0px"
	 viewBox="0 0 24 24" style="enable-background:new 0 0 24 24;" xml:space="preserve">
<style type="text/css">
	.st0{fill-rule:evenodd;clip-rule:evenodd;fill:#673DE6;}
</style>
<path class="st0" d="M10.9,2.7c0.3-0.6,1-0.8,1.6-0.5c0.2,0.1,0.4,0.3,0.5,0.5l2.7,5l5.3,1c0.6,0.1,1,0.7,0.9,1.3
	c0,0.2-0.2,0.4-0.3,0.6l-3.9,3.9l1.3,6.1c0.2,1-0.8,1.7-1.7,1.3L12,19.1l-5.2,2.8c-0.9,0.5-1.9-0.3-1.7-1.3l1.3-6.1l-3.9-3.9
	C2,10.1,2,9.4,2.5,9c0.2-0.2,0.4-0.3,0.6-0.3l5.2-1C8.3,7.7,10.9,2.7,10.9,2.7z"/>
</svg>
