<?xml version="1.0" encoding="utf-8"?>
<!-- Generator: Adobe Illustrator 24.3.0, SVG Export Plug-In . SVG Version: 6.00 Build 0)  -->
<svg version="1.1" id="Layer_1" xmlns="http://www.w3.org/2000/svg" xmlns:xlink="http://www.w3.org/1999/xlink" x="0px" y="0px"
	 viewBox="0 0 4333.3 800" style="enable-background:new 0 0 4333.3 800;" xml:space="preserve">
<g>
	<path d="M1047.9,292.4l29.8,295.2h81.6l44.6-93l41.8-103.3l3.2,93.5l8,102.8h82l146-295.2h-90.1l-46.2,112.7l-37.4,104.6l-1.5-94.8
		l-6.6-122.5h-72l-56,122.6l-38.5,95.1l2-217.7H1047.9z"/>
	<path d="M1778.8,349.9c-6.1-15.9-29.8-64-92.1-61.5c-27.3,1.2-47.7,8.2-68.5,26.1c-6.5,5.7-17.1,14.7-22.8,21.6l3.7-43.6h-78.3
		c-3.3,52.2-38.3,242.9-74.6,414.5h88.4l23.2-123.9c0,0,75.8,40.8,161-26.1C1804.4,490.5,1786.9,371.5,1778.8,349.9z M1643.4,517.8
		c-39.5,26.9-67.3,0.8-69.7-2.4c0,0,7.3-129.6,63.6-152c32.6-13.4,47.7,4.9,53.8,19.2c3.7,8.6,4.9,17.5,4.1,26.1
		C1693.6,429.8,1685,489.7,1643.4,517.8z"/>
	<path d="M2121.5,346.2c-9-24.5-28.5-43.2-53-51.8c-67.7-24-122.3,35.1-122.3,35.1l34.6-167.1h-87.6l-62.8,306.9
		c-28.1,124.3,77.8,125.5,77.8,125.5c127.2,11.8,178.9-75.8,178.9-75.8C2137.8,436.7,2133.4,379.2,2121.5,346.2z M2036.4,417.5
		c-1.2,17.5-9.8,50.1-27.3,76.6c0,0-31.4,44-69.3,35.5c-5.7-1.2-10.6-4.5-14.3-8.6c-5.3-6.9-11-20.8-8.6-45.7
		c0,0,4.1-81.9,58.7-112.1c15.5-8.6,33.8-6.1,44,2.4C2034.7,378,2037.6,398,2036.4,417.5z"/>
	<path d="M2338.8,287.9c-115.4-3.3-156.5,100.3-156.5,100.3c-45.7,109.2,8.6,167.5,8.6,167.5c61.5,78.7,213.2,16.7,213.2,16.7
		l-5.7-63.2c-155.3,57.9-151.2-33.8-151.2-33.8s42,1.6,79.1-2.4c117.8-13,113.7-90.9,113.7-90.9S2446.8,291.2,2338.8,287.9z
		 M2358,379.2c-2.9,18.8-16.7,22.8-16.7,22.8s-22.8,12.6-85.2,10.6c0,0,14.7-68.5,77.8-59.9c5.7,0.8,11.4,3.3,15.9,6.9
		C2354.7,363.3,2359.6,369.8,2358,379.2z"/>
	<path d="M3824.9,287.9c-115.4-3.3-156.5,100.3-156.5,100.3c-45.7,109.2,8.6,167.5,8.6,167.5c61.5,78.7,213.2,16.7,213.2,16.7
		l-5.7-63.2c-155.3,57.9-151.2-33.8-151.2-33.8s42,1.6,79.1-2.4c117.8-13,114.1-90.9,114.1-90.9S3932.9,291.2,3824.9,287.9z
		 M3827.3,402c0,0-22.8,12.6-85.2,10.6c0,0,15.1-68.5,77.9-59.9c6.1,0.8,11.4,3.3,15.9,6.9c5.3,3.7,9.8,10.2,8.2,19.6
		C3841.2,398,3827.3,402,3827.3,402z"/>
	<path d="M2609.4,295.2c-87.2,21.6-121.1,97-121.1,97c-37.1,75-11,136.5-11,136.5c9,24.9,35.5,55,86.8,58.7
		c51.4,4.1,84.8-44,84.8-44c-12.6,162.2-170.4,87.2-170.4,87.2l-20,65.6c25.3,15.5,85.2,19.6,85.2,19.6
		c138.6,4.5,161-80.3,169.6-95.4c8.6-15.1,64-312.2,64-312.2C2686.5,273.2,2609.4,295.2,2609.4,295.2z M2666.5,438.3
		c-4.5,24-13.9,41.2-21.2,52.2c-8.2,11.8-19.6,20.8-33,25.7c-45.7,15.9-51.4-35.5-51.4-35.5s-9.8-52.2,28.9-96.6
		c39.1-44.4,91.7-24.5,91.7-24.5L2666.5,438.3z"/>
	<path d="M2961.2,214.9c-1.2,25.2-23.4,43.5-46.8,43.9c-33.1,0.5-48.3-18.1-48.3-43.4c0-25.2,23.4-50.1,54-48.2
		C2945.6,168.8,2962.6,187.6,2961.2,214.9z"/>
	<path d="M2853.9,292.4h89L2885,587.6h-88.5L2853.9,292.4z"/>
	<path d="M2958,587.6h88.5l25.6-135c3.7-19.4,10.5-38.1,20.6-55.2c10.1-17,24.2-34.1,41.8-37.9c22.6-4.9,32.4,5.9,36.6,15
		c2.3,4.9,3.2,10.4,3,15.8c-0.4,10.9-2.5,40.7-14.4,96.3c-15.5,72.6-19.8,100.9-19.8,100.9h87.4l29.6-141.5
		c0,0,27.2-113.1-16.8-141.7c-15.6-10.1-37.1-14.5-52.6-15.2c-30.2-1.4-55.1,9.8-78.2,29c-8.3,6.9-17.1,15.6-24.7,25.9l5.4-51.8
		h-79.3C3010.5,292.4,2959.6,605.9,2958,587.6z"/>
	<path d="M3298.4,587.6h88.5l25.6-135c3.7-19.4,10.5-38.1,20.6-55.2c10.1-17,24.2-34.1,41.8-37.9c22.6-4.9,32.4,5.9,36.6,15
		c2.3,4.9,3.2,10.4,3,15.8c-0.4,10.9-2.5,40.7-14.4,96.3c-15.6,72.6-19.8,100.9-19.8,100.9h87.4l29.6-141.5
		c0,0,27.2-113.1-16.8-141.7c-15.6-10.1-37.1-14.5-52.6-15.2c-30.2-1.4-55.1,9.8-78.2,29c-8.3,6.9-17.1,15.6-24.7,25.9l5.4-51.8
		h-79.4C3350.9,292.4,3300,605.9,3298.4,587.6z"/>
	<path d="M3994.4,292.4h77.8l-6.4,62.4c0,0,36.5-74.7,111.5-65.7l-16.1,84.8c0,0-81-18-102.9,87.4c-22,105.4-24.7,126.4-24.7,126.4
		h-88.5C3945,587.6,3989,392.1,3994.4,292.4z"/>
	<path d="M926.5,359.6c0-180.2-172.4-326.5-385.2-326.5c-212.8,0-385.2,146.3-385.2,326.5c0,53.4,15.1,103.5,41.6,148
		c-24,26.9-38.3,60.7-38.3,97.4c0,89.3,84.8,161.8,189.1,161.8c70.5,0,131.7-32.6,164.7-81.5c9,0.8,18.7,1.2,28.1,1.2
		c9,0,17.9-0.4,26.5-0.8c33,48.5,94.2,81.1,164.3,81.1c104.8,0,189.5-72.6,189.5-161.8c0-36.3-13.9-69.7-37.5-96.6
		C911.4,464,926.5,413.5,926.5,359.6z M316.3,367.4v-90.5h64v90.5H316.3z M680.3,519c0,0-133.3,81.5-311-55v-42
		c0,0,124.3,112.9,311,57.9V519z M701.5,367.4H429.6v-90.5h271.9V367.4z"/>
</g>
</svg>
